Patient4_TMGait_0pt8_01_right_18_EMG.mot
version=1
nRows=16
nColumns=33
inDegrees=no
endheader
time	1LAddLong	2LGlutMax	3LGlutMed	4LIliopsoas	5LSemiMemb	6LBicFemLong	7LRecFem	8LVastMed	9LVastLat	10LGasMed	11LTibAnt	12lTibPost	13LPeroneusLong	14LSol	15LExtDigLong	16LFlexDigLong	17RAddLong	18RGlutMax	19RGlutMed	20RIliopsoas	21RSemiMemb	22RBicFemLong	23RRecFem	24RVastMed	25RVastLat	26RGasMed	27RTibAnt	28RTibPost	29RPeroneusLong	30RSol	31RExtDigLong	32RFlexDigLong
19.98	0.01297	-0.095062	0.034485	0.001831	0.069733	-0.11002	0.15701	-0.007782	0.070343	0.25436	-0.028992	0.009308	0.083618	-0.088501	-0.091248	-0.010376	-0.039368	0.50842	1.0063	-0.003967	0.12283	0.039978	0.21591	-0.050507	-0.018616	0.010681	-0.65567	-0.011749	-0.13962	-0.098419	-0.001068	-0.00473
19.981	0.007172	-0.0914	0.026855	0.005493	0.050049	-0.090332	0.11871	-0.001221	0.038605	0.35156	-0.044098	0.010681	0.37842	0.015564	0.014496	-0.01358	0.015717	0.42938	0.79025	-0.060425	0.11993	0.02655	0.20157	-0.096283	-0.032349	0.001984	-0.3305	-0.007477	0.10193	-0.080566	0.002441	-0.001831
19.982	0.006256	-0.099182	0.001526	-0.012817	0.024872	-0.011139	0.13199	-0.010223	0.063629	0.31036	-0.007172	0.007782	-0.006561	0.092316	0.063324	0.005035	0.10635	0.39429	0.85373	-0.16937	0.11124	0.020905	0.18692	-0.13321	-0.039825	0.000763	0.18173	-0.007324	0.027771	-0.048065	-0.001831	-0.005951
19.983	0.006714	-0.11765	-0.00824	-0.008087	0.019836	0.028992	0.15091	-0.005341	0.059967	0.21103	-0.019989	0.009918	-0.025482	0.16312	0.039825	-0.008698	0.10651	0.29587	0.91812	-0.103	0.098419	0.013733	0.18082	-0.15808	-0.033112	-0.00061	0.21225	-0.008698	0.092621	-0.014343	0.005493	-0.01358
19.984	-0.001831	-0.11795	-0.058594	0.003662	0.031433	0.13153	0.18845	-0.002136	0.053406	-0.02243	-0.003204	0.002289	-0.028992	0.14801	0.032654	0.007172	0.052795	0.27573	1.0149	-0.01709	0.066681	0.006714	0.10574	-0.17303	-0.054321	-0.012665	0.062561	-0.006561	0.033722	0.10483	-0.001678	-0.015259
19.985	-0.000153	-0.14511	-0.1297	0.025635	-0.023651	0.099182	0.17777	0.002136	0.053253	-0.27878	-0.005035	0.006714	-0.018311	0.068817	0.04364	-0.00351	-0.003357	0.18951	0.90027	0.003662	0.052795	-0.003662	-0.014954	-0.17899	-0.050812	-0.016174	-0.077209	-0.00885	-0.048828	0.055695	-0.000458	-0.003052
19.986	0.001068	-0.13901	-0.096893	0.023956	-0.027161	0.02533	0.17487	0.00061	0.017395	-0.27451	0.019836	-0.005798	-0.013275	-0.068665	0.050812	-0.06073	-0.039825	0.1471	0.84732	-0.018768	0.031586	0.00824	-0.036316	-0.19943	-0.0177	-0.018158	-0.19836	-0.00885	0.028534	-0.051422	0.000458	-0.012512
19.987	-0.001526	-0.1648	0.084991	0.017853	-0.00061	0.024719	0.23209	0.001373	-0.039215	-0.32867	0.012054	0.020752	-0.016327	-0.1059	0.039215	-0.000916	-0.066528	0.16449	0.9053	0.014343	0.046387	0.026855	-0.01709	-0.13046	-0.026398	-0.015106	-0.21881	-0.00412	0.018921	-0.063019	0.006409	-0.009308
19.988	-0.003357	-0.13672	-0.063171	0.008698	0.053558	0.016785	0.24628	0.002594	-0.023499	-0.025024	-0.013885	0.04776	0.021667	-0.097809	0.038605	0.055847	-0.078735	0.13565	0.8223	0.097198	0.082397	0.04364	-0.011292	-0.13825	-0.009003	-0.001526	-0.061188	-0.005035	0.13321	-0.018311	-0.000458	-0.011292
19.989	0.002899	-0.13336	-0.026093	-0.003967	0.040894	0.044556	0.2803	0.01236	-0.085907	-0.061646	-0.016937	0.005188	0.024567	0.074921	0.03067	-0.16876	-0.06134	0.10025	0.83695	0.1062	0.09079	0.073242	-0.03479	-0.08194	0.016937	-0.006409	0.037689	-0.001373	0.43304	-0.03418	0.001526	-0.010834
19.99	0.005341	-0.12802	0.021515	-0.014954	0.028534	0.04303	0.19302	0.016174	-0.10544	-0.22736	0.016327	-0.044403	-0.010376	0.16708	0.030518	0.15152	-0.052795	0.046692	0.74112	0.033264	0.077209	0.10422	0.036774	-0.10971	0.03067	-0.00061	0.18906	-0.010529	0.028687	-0.032806	-0.001068	-0.013885
19.991	0.004425	-0.13214	0.066071	-0.008698	0.035706	0.019379	0.11337	0.009003	0.011444	-0.17822	0.027008	0.016327	0.02243	0.13992	0.009308	0.18112	-0.04837	-0.006866	0.62378	-0.022736	-0.060883	0.11459	0.070496	-0.037537	0.013733	-0.006409	0.35873	-0.007782	0.023041	-0.000916	0.000153	-0.010223
19.992	0.001373	-0.17059	0.016785	-0.004272	0.015869	0.003967	0.11856	0.005035	0.046539	-0.096893	0.048065	0.010986	0.009766	0.025787	-0.002136	-0.092926	-0.028687	0.054474	0.84732	-0.079651	-0.093384	0.080566	0.1088	-0.049286	-0.006714	-0.003662	0.72601	-0.008087	0.3122	-0.031891	0.000916	0.000153
19.993	0.006256	-0.16678	-0.032959	-0.017395	0.023346	0.019989	0.18051	0.003815	0.015259	-0.06485	-0.001068	0.027618	0.028381	-0.05127	-0.037384	-0.11627	-0.001526	0.040131	0.76797	-0.11902	-0.074615	0.065765	0.15579	-0.067902	-0.013275	-0.00824	0.90057	-0.005951	0.054779	0.002441	0.001984	0.001831
19.994	0.006409	-0.15762	-0.052795	-0.00946	0.04715	0.016327	0.1181	-0.005493	0.007172	-0.039978	-0.040436	0.02182	0.071259	-0.11047	-0.028076	-0.037231	0.005188	0.02121	0.98389	-0.11215	0.02655	0.058899	0.15152	-0.030975	-0.015259	0.00061	0.32516	-0.008545	-0.17014	-0.066833	0	0.017242
19.995	0.00473	-0.17685	-0.082703	-0.002289	0.005493	-0.00061	0.15564	0.00412	-0.021973	0.028992	0.000458	0.013123	0.015717	-0.075378	-0.017395	-0.00824	0.004883	0.039825	0.98038	-0.023499	0.21545	0.05722	0.091248	-0.02594	-0.003815	0.009003	-0.72937	-0.001221	0.56122	-0.16449	-0.001068	0.012512
